<svg xmlns="http://www.w3.org/2000/svg" version="1.1" xmlns:xlink="http://www.w3.org/1999/xlink" xmlns:svgjs="http://svgjs.dev/svgjs" width="1500" height="1500" viewBox="0 0 1500 1500"><rect width="1500" height="1500" fill="#000000"></rect><g transform="matrix(0.6666666666666666,0,0,0.6666666666666666,249.39393939393938,604.2558465023776)"><svg viewBox="0 0 396 115" data-background-color="#1d366f" preserveAspectRatio="xMidYMid meet" height="435" width="1500" xmlns="http://www.w3.org/2000/svg" xmlns:xlink="http://www.w3.org/1999/xlink"><g id="tight-bounds" transform="matrix(1,0,0,1,0.2400000000000091,0.2950953525054274)"><svg viewBox="0 0 395.52 114.40980929498916" height="114.40980929498916" width="395.52"><g><svg viewBox="0 0 549.0385865117826 158.81725318164303" height="114.40980929498916" width="395.52"><g transform="matrix(1,0,0,1,0,51.0611591687252)"><svg viewBox="0 0 395.52 56.69493484419262" height="56.69493484419262" width="395.52"><g id="textblocktransform"><svg viewBox="0 0 395.52 56.69493484419262" height="56.69493484419262" width="395.52" id="textblock"><g><svg viewBox="0 0 395.52 56.69493484419262" height="56.69493484419262" width="395.52"><g transform="matrix(1,0,0,1,0,0)"><svg width="395.52" viewBox="0.6 -37.15 264.71999999999997 37.949999999999996" height="56.69493484419262" data-palette-color="#ffffff"><path d="M28.65 0L25.15 0 21.65-9.55 7.5-9.55 4.35 0 0.6 0 12.7-34.1 16.2-34.1 28.65 0ZM14.4-29.2L8.65-12.65 20.5-12.65 14.4-29.2ZM41.05-34.05Q39.3-34.05 38.17-32.85 37.05-31.65 37.05-29.75L37.05-29.75 37.05-23.4 42.45-23.4 42.45-20.3 37.05-20.3 37.05 0 33.65 0 33.65-20.3 30.65-20.3 30.65-23.4 33.65-23.4 33.65-29.75Q33.65-33 35.72-35.08 37.8-37.15 41.05-37.15L41.05-37.15 42.45-37.15 42.45-34.05 41.05-34.05ZM57.65-24.2Q58.85-24.2 59.95-23.85L59.95-23.85 59.95-20.75Q58.9-21.25 57.65-21.25L57.65-21.25Q55.5-21.25 53.65-20.05 51.8-18.85 50.67-16.57 49.55-14.3 49.55-11.2L49.55-11.2 49.55 0 46.15 0 46.15-23.4 49.55-23.4 49.55-18.7Q50.9-21.3 52.97-22.75 55.05-24.2 57.65-24.2L57.65-24.2ZM68.34 0L64.94 0 64.94-23.4 68.34-23.4 68.34 0ZM66.64-27.95Q65.49-27.95 64.72-28.75 63.94-29.55 63.94-30.7L63.94-30.7Q63.94-31.8 64.72-32.58 65.49-33.35 66.64-33.35L66.64-33.35Q67.74-33.35 68.54-32.58 69.34-31.8 69.34-30.65L69.34-30.65Q69.34-29.55 68.54-28.75 67.74-27.95 66.64-27.95L66.64-27.95ZM77.34 0L77.34-34.1 88.74-34.1Q93.34-34.1 96.09-31.3 98.84-28.5 98.84-23.55L98.84-23.55Q98.84-18.65 95.97-15.85 93.09-13.05 88.34-13.05L88.34-13.05 81.09-13.05 81.09 0 77.34 0ZM81.09-16.15L88.24-16.15Q91.59-16.15 93.34-18.03 95.09-19.9 95.09-23.55L95.09-23.55Q95.09-27.2 93.34-29.1 91.59-31 88.24-31L88.24-31 81.09-31 81.09-16.15ZM114.74-24.2Q115.94-24.2 117.04-23.85L117.04-23.85 117.04-20.75Q115.99-21.25 114.74-21.25L114.74-21.25Q112.59-21.25 110.74-20.05 108.89-18.85 107.76-16.57 106.64-14.3 106.64-11.2L106.64-11.2 106.64 0 103.24 0 103.24-23.4 106.64-23.4 106.64-18.7Q107.99-21.3 110.06-22.75 112.14-24.2 114.74-24.2L114.74-24.2ZM129.79-24.2Q132.94-24.2 135.49-22.65 138.04-21.1 139.49-18.43 140.94-15.75 140.94-12.45L140.94-12.45Q140.94-11.5 140.89-11L140.89-11 121.64-11Q121.84-7.4 123.99-4.85 126.14-2.3 129.84-2.3L129.84-2.3Q132.84-2.3 134.81-3.43 136.79-4.55 137.99-6.55L137.99-6.55 140.69-4.75Q139.04-2.15 136.34-0.68 133.64 0.8 129.94 0.8L129.94 0.8Q126.54 0.8 123.89-0.8 121.24-2.4 119.74-5.25 118.24-8.1 118.24-11.7L118.24-11.7Q118.24-15.3 119.71-18.15 121.19-21 123.81-22.6 126.44-24.2 129.79-24.2L129.79-24.2ZM121.84-13.8L137.54-13.8Q137.04-17.45 135.09-19.28 133.14-21.1 129.79-21.1L129.79-21.1Q126.54-21.1 124.46-19.03 122.39-16.95 121.84-13.8L121.84-13.8ZM164.28-36.3L167.68-36.3 167.68 0 164.28 0 164.28-3.45Q162.83-1.45 160.73-0.33 158.63 0.8 156.13 0.8L156.13 0.8Q152.78 0.8 150.13-0.8 147.48-2.4 145.98-5.25 144.48-8.1 144.48-11.75L144.48-11.75Q144.48-15.35 145.96-18.18 147.43-21 150.06-22.6 152.68-24.2 156.03-24.2L156.03-24.2Q158.58-24.2 160.71-23.08 162.83-21.95 164.28-19.9L164.28-19.9 164.28-36.3ZM156.03-2.3Q158.43-2.3 160.31-3.5 162.18-4.7 163.23-6.85 164.28-9 164.28-11.7L164.28-11.7Q164.28-14.4 163.23-16.55 162.18-18.7 160.31-19.9 158.43-21.1 156.03-21.1L156.03-21.1Q153.68-21.1 151.83-19.9 149.98-18.7 148.93-16.57 147.88-14.45 147.88-11.75L147.88-11.75Q147.88-9 148.93-6.85 149.98-4.7 151.83-3.5 153.68-2.3 156.03-2.3L156.03-2.3ZM179.23 0L175.83 0 175.83-23.4 179.23-23.4 179.23 0ZM177.53-27.95Q176.38-27.95 175.61-28.75 174.83-29.55 174.83-30.7L174.83-30.7Q174.83-31.8 175.61-32.58 176.38-33.35 177.53-33.35L177.53-33.35Q178.63-33.35 179.43-32.58 180.23-31.8 180.23-30.65L180.23-30.65Q180.23-29.55 179.43-28.75 178.63-27.95 177.53-27.95L177.53-27.95ZM197.53 0.8Q194.13 0.8 191.48-0.8 188.83-2.4 187.33-5.25 185.83-8.1 185.83-11.7L185.83-11.7Q185.83-15.3 187.3-18.15 188.78-21 191.43-22.6 194.08-24.2 197.43-24.2L197.43-24.2Q200.28-24.2 202.4-22.98 204.53-21.75 206.28-19.5L206.28-19.5 203.78-17.55Q201.33-21.1 197.43-21.1L197.43-21.1Q195.08-21.1 193.2-19.9 191.33-18.7 190.28-16.55 189.23-14.4 189.23-11.7L189.23-11.7Q189.23-9 190.28-6.85 191.33-4.7 193.2-3.5 195.08-2.3 197.43-2.3L197.43-2.3Q199.83-2.3 201.38-3.13 202.93-3.95 204.18-5.55L204.18-5.55 206.83-3.7Q205.18-1.65 202.75-0.43 200.33 0.8 197.53 0.8L197.53 0.8ZM215.88 0L212.48 0 212.48-20.3 208.48-20.3 208.48-23.4 212.48-23.4 212.48-31.15 215.88-31.15 215.88-23.4 221.28-23.4 221.28-20.3 215.88-20.3 215.88 0ZM235.17 0.8Q231.82 0.8 229.17-0.8 226.52-2.4 225.02-5.28 223.52-8.15 223.52-11.75L223.52-11.75Q223.52-15.35 225-18.18 226.47-21 229.1-22.6 231.72-24.2 235.07-24.2L235.07-24.2Q238.42-24.2 241.07-22.6 243.72-21 245.22-18.15 246.72-15.3 246.72-11.7L246.72-11.7Q246.72-8.1 245.25-5.25 243.77-2.4 241.15-0.8 238.52 0.8 235.17 0.8L235.17 0.8ZM235.07-2.3Q237.47-2.3 239.35-3.5 241.22-4.7 242.27-6.85 243.32-9 243.32-11.7L243.32-11.7Q243.32-14.4 242.27-16.55 241.22-18.7 239.35-19.9 237.47-21.1 235.07-21.1L235.07-21.1Q232.72-21.1 230.87-19.9 229.02-18.7 227.97-16.57 226.92-14.45 226.92-11.75L226.92-11.75Q226.92-9 227.97-6.85 229.02-4.7 230.87-3.5 232.72-2.3 235.07-2.3L235.07-2.3ZM263.02-24.2Q264.22-24.2 265.32-23.85L265.32-23.85 265.32-20.75Q264.27-21.25 263.02-21.25L263.02-21.25Q260.87-21.25 259.02-20.05 257.17-18.85 256.05-16.57 254.92-14.3 254.92-11.2L254.92-11.2 254.92 0 251.52 0 251.52-23.4 254.92-23.4 254.92-18.7Q256.27-21.3 258.35-22.75 260.42-24.2 263.02-24.2L263.02-24.2Z" opacity="1" transform="matrix(1,0,0,1,0,0)" fill="#ffffff" class="wordmark-text-0" data-fill-palette-color="primary" id="text-0"></path></svg></g></svg></g></svg></g></svg></g><g transform="matrix(1,0,0,1,408.9043134382776,0)"><svg viewBox="0 0 140.13427307350503 158.81725318164303" height="158.81725318164303" width="140.13427307350503"><g><svg xmlns="http://www.w3.org/2000/svg" xmlns:xlink="http://www.w3.org/1999/xlink" version="1.1" x="0" y="0" viewBox="36 32.092 88.155 99.908" enable-background="new 0 0 160 160" xml:space="preserve" height="158.81725318164303" width="140.13427307350503" class="icon-icon-0" data-fill-palette-color="accent" id="icon-0"><g fill="#ffffff" data-fill-palette-color="accent"><path fill-rule="evenodd" clip-rule="evenodd" d="M80.077 104.504C65.412 104.504 53.09 94.478 49.589 80.907 44.204 81.423 40.006 81.937 37.78 82.226 45.144 108.669 73.237 132 80.623 132 89.251 132 115.648 108.819 122.508 82.244A365 365 0 0 0 110.563 80.912C107.061 94.48 94.74 104.504 80.077 104.504" fill="#ffffff" data-fill-palette-color="accent"></path><path fill-rule="evenodd" clip-rule="evenodd" d="M59.813 87.979A25.1 25.1 0 0 0 71.939 96.85 25.1 25.1 0 0 0 80.004 98.2C82.758 98.209 85.493 97.79 88.105 96.913A25 25 0 0 0 92.722 94.855C95.706 93.124 98.248 90.816 100.307 88.044 103.406 83.874 105.105 78.904 105.24 73.693L105.242 73.486C105.247 73.355 105.249 73.222 105.25 73.09A25.04 25.04 0 0 0 100.867 58.826 25.34 25.34 0 0 0 87.966 49.109 25.2 25.2 0 0 0 80.138 47.842C77.388 47.834 74.668 48.275 72.057 49.152 66.955 50.864 62.397 54.3 59.333 58.741A25.04 25.04 0 0 0 54.891 72.954C54.891 73.07 54.893 73.186 54.897 73.301L54.902 73.48A25 25 0 0 0 59.813 87.979M101.132 72.308C101.687 73.387 102.38 74.872 102.432 76.092 102.431 76.071 103.007 75.688 103.067 75.634 103.089 75.613 103.11 75.596 103.132 75.573A8 8 0 0 0 103.41 75.305C103.472 75.243 103.535 75.175 103.601 75.106A23.4 23.4 0 0 1 99.846 85.937C99.803 85.637 99.77 85.33 99.666 85.048 99.486 84.549 99.368 84.623 98.995 84.925 98.138 85.623 97.059 85.978 96.039 86.362A17.6 17.6 0 0 1 90.768 87.446L85.777 81.005 89.185 70.774S97.551 68.094 97.552 68.096A12.2 12.2 0 0 1 101.132 72.308M80.39 54.729A13.4 13.4 0 0 1 84.439 52.781C85.449 52.491 86.445 52.521 87.469 52.347 88.069 52.244 88.706 52.25 89.293 52.114A3 3 0 0 0 89.146 51.758L89.122 51.702A3 3 0 0 0 89.05 51.55C89.039 51.529 89.033 51.512 89.023 51.491L88.893 51.235C88.889 51.229 88.895 51.217 88.897 51.207A23.6 23.6 0 0 1 98.716 58.587L98.469 58.546 98.43 58.54A7 7 0 0 0 98.118 58.504C97.95 58.489 97.496 58.391 97.388 58.571 97.244 58.805 97.553 59.298 97.592 59.536 97.636 59.8 97.649 60.071 97.698 60.339 97.816 60.966 97.89 61.601 97.927 62.237A17.2 17.2 0 0 1 97.712 66.091C97.68 66.278 97.543 67.559 97.392 67.607L89.028 70.269 80.366 63.936zM85.237 81.198L90.289 87.718A13.54 13.54 0 0 1 86.766 92.957C86.287 93.395 85.778 93.8 85.237 94.156 85.091 94.253 84.876 94.335 84.751 94.457 84.112 95.084 85.534 95.606 85.88 95.769 85.905 95.781 85.933 95.791 85.958 95.803L86.032 95.832C84.159 96.312 82.198 96.568 80.177 96.568 78.005 96.568 75.958 96.293 74.043 95.794L74.113 95.765 74.147 95.749C74.555 95.573 75.003 95.418 75.347 95.127 75.701 94.829 75.766 94.696 75.388 94.472 74.997 94.241 74.621 93.992 74.261 93.716A13.5 13.5 0 0 1 70.574 89.356C70.473 89.167 69.768 87.988 69.879 87.828L74.534 81.168zM71.247 51.288L71.165 51.485 71.146 51.536C71.125 51.593 71.105 51.644 71.09 51.688L71.073 51.737 71.039 51.838 70.873 52.304C71.14 52.389 71.469 52.275 71.753 52.295 72.733 52.36 73.656 52.39 74.632 52.61A17.5 17.5 0 0 1 79.843 54.735L79.817 63.937 71.24 70.134 62.846 67.631C62.666 67.578 62.512 66.046 62.478 65.833 62.253 64.359 62.225 62.561 62.12 61.062 62.051 60.075 62.592 58.507 61.786 58.555L61.652 58.562A23.6 23.6 0 0 1 71.247 51.288M56.77 75.198C56.859 75.288 56.941 75.367 57.018 75.438 57.264 75.664 57.492 75.964 57.833 76.052 58.045 75.499 58.074 74.855 58.274 74.283 58.493 73.656 58.763 73.048 59.074 72.463A13.5 13.5 0 0 1 61.498 69.21C61.646 69.064 62.515 68.104 62.697 68.157L70.986 70.628 74.217 80.666 69.508 87.401C69.412 87.537 68.1 87.278 67.904 87.252A18 18 0 0 1 66.387 86.977 17 17 0 0 1 63.928 86.219 15 15 0 0 1 62.176 85.398C61.969 85.284 61.769 85.161 61.567 85.039 61.269 84.858 61.052 84.541 60.74 84.399 60.455 84.268 60.486 84.337 60.396 84.637 60.31 84.925 60.287 85.227 60.273 85.529 58.314 82.363 57.106 78.788 56.76 75.185z" fill="#ffffff" data-fill-palette-color="accent"></path><path fill-rule="evenodd" clip-rule="evenodd" d="M79.898 32.092L36 44.686V66.725S41.405 65.948 49.536 65.165C52.955 51.477 65.33 41.336 80.078 41.336 94.831 41.336 107.21 51.485 110.624 65.182 118.75 65.958 124.155 66.724 124.155 66.724V44.686z" fill="#ffffff" data-fill-palette-color="accent"></path></g></svg></g></svg></g></svg></g><defs></defs></svg><rect width="395.52" height="114.40980929498916" fill="none" stroke="none" visibility="hidden"></rect></g></svg></g></svg>